<?xml version="1.0" encoding="UTF-8"?>
<svg id="Layer_2" xmlns="http://www.w3.org/2000/svg" viewBox="0 0 86.5 20.84">
  <g id="Layer_1-2" data-name="Layer_1">
    <path d="M7.06,16.97c-1.09,0-2.07-.15-2.94-.44-.86-.29-1.59-.72-2.21-1.29-.61-.57-1.09-1.24-1.43-2.02-.32-.78-.48-1.65-.48-2.6s.17-1.86.51-2.64c.35-.78.84-1.44,1.47-1.98.64-.55,1.4-.97,2.28-1.26.89-.29,1.88-.44,2.97-.44,1.29,0,2.42.2,3.4.6.98.38,1.76.92,2.32,1.61.58.69.91,1.5.99,2.42h-3.24c-.12-.46-.34-.84-.67-1.15-.32-.31-.73-.54-1.22-.69-.48-.17-1.01-.25-1.61-.25s-1.14.09-1.63.28c-.49.18-.9.44-1.24.78-.34.34-.6.74-.78,1.2-.18.46-.28.97-.28,1.54,0,.81.15,1.51.46,2.09.32.57.77,1,1.36,1.29.58.29,1.28.44,2.09.44.6,0,1.14-.08,1.63-.25.49-.18.9-.44,1.24-.76.34-.32.57-.71.69-1.17h3.27c-.09.97-.46,1.8-1.1,2.51-.64.71-1.47,1.25-2.48,1.63-1.01.38-2.13.58-3.36.58ZM83.24,16.77V0h3.27v16.77h-3.27ZM73.83,20.84c-1.27,0-2.36-.16-3.27-.48-.9-.31-1.61-.76-2.12-1.36-.51-.58-.8-1.27-.87-2.05h3.1c.09.37.27.67.53.92.28.26.64.45,1.1.58.46.12.98.18,1.56.18.75,0,1.4-.09,1.93-.28.55-.18.98-.48,1.29-.9.31-.41.46-.95.46-1.61v-2.12h-.16c-.37.72-.97,1.28-1.82,1.68-.83.4-1.74.6-2.74.6-.87,0-1.66-.14-2.37-.41-.71-.29-1.31-.69-1.82-1.2-.49-.52-.87-1.13-1.15-1.84-.26-.72-.39-1.52-.39-2.39,0-1.18.25-2.21.74-3.08.51-.89,1.19-1.57,2.05-2.05.87-.49,1.89-.74,3.04-.74,1.04,0,1.96.21,2.74.62.8.4,1.38.94,1.75,1.63h.16l.14-2.02h3.08v10.92c0,1.15-.26,2.12-.78,2.92-.51.81-1.28,1.43-2.32,1.84-1.03.41-2.32.62-3.86.62ZM73.94,13.59c.74,0,1.37-.13,1.91-.39.54-.26.95-.62,1.24-1.08.31-.48.46-1,.46-1.59v-.64c0-.63-.15-1.18-.46-1.66-.29-.49-.71-.87-1.24-1.13-.52-.28-1.14-.41-1.86-.41s-1.35.15-1.89.44c-.54.28-.95.67-1.24,1.2-.29.51-.44,1.11-.44,1.82s.15,1.34.44,1.86c.29.51.7.9,1.22,1.17.54.28,1.16.41,1.86.41ZM54.05,16.97c-1.47,0-2.74-.26-3.82-.78-1.07-.52-1.9-1.25-2.48-2.19-.58-.94-.87-2.03-.87-3.29,0-1.33.29-2.48.87-3.43.6-.95,1.43-1.68,2.51-2.18,1.09-.52,2.36-.78,3.82-.78,1.58,0,2.91.29,3.98.87,1.09.58,1.89,1.4,2.39,2.44.52,1.04.72,2.28.6,3.73h-10.76c.03.71.21,1.3.53,1.79.32.49.77.87,1.36,1.13.6.25,1.28.37,2.05.37.87,0,1.63-.16,2.28-.48.64-.32,1.05-.74,1.22-1.26h3.22c-.15.84-.54,1.57-1.17,2.18-.63.61-1.43,1.08-2.42,1.4-.98.32-2.08.48-3.29.48ZM50.21,9.71l-.14-.23h7.87l-.18.23c0-.67-.15-1.25-.44-1.72-.29-.48-.71-.83-1.27-1.06-.55-.25-1.21-.37-1.98-.37s-1.43.13-2,.39c-.57.25-1.01.61-1.33,1.08-.31.48-.48,1.04-.53,1.68ZM37.02,17.02c-.9,0-1.73-.15-2.48-.44-.75-.31-1.4-.74-1.93-1.29-.54-.57-.95-1.24-1.24-2.02-.29-.78-.44-1.66-.44-2.62,0-1.29.25-2.41.76-3.36.51-.95,1.22-1.69,2.14-2.21.94-.52,2.01-.78,3.22-.78.72,0,1.38.1,1.98.3.61.18,1.15.46,1.61.83.46.35.81.78,1.06,1.29h.14V0h3.29v16.77h-3.13l-.09-2.14h-.14c-.35.71-.93,1.28-1.72,1.73-.8.44-1.8.67-3.01.67ZM37.99,14.51c.8,0,1.48-.15,2.05-.44.57-.31,1-.72,1.31-1.24.32-.54.48-1.14.48-1.82v-.71c0-.69-.16-1.3-.48-1.82-.31-.52-.74-.93-1.31-1.22-.57-.31-1.25-.46-2.05-.46s-1.46.15-2.02.46c-.55.31-.98.75-1.29,1.33-.31.57-.46,1.25-.46,2.05s.15,1.49.46,2.07c.31.57.74,1.01,1.29,1.33.57.31,1.24.46,2.02.46ZM22.29,17c-1.07,0-2.05-.14-2.94-.41-.89-.29-1.66-.71-2.3-1.26-.64-.55-1.14-1.22-1.5-2-.34-.78-.51-1.67-.51-2.67,0-1.32.3-2.45.9-3.38.61-.95,1.46-1.68,2.55-2.18,1.09-.52,2.35-.78,3.8-.78,1.09,0,2.08.15,2.97.44.89.29,1.66.71,2.3,1.26.64.54,1.13,1.2,1.47,2,.35.78.53,1.66.53,2.64,0,1.3-.31,2.44-.92,3.4-.6.95-1.44,1.68-2.53,2.19-1.07.51-2.35.76-3.82.76ZM22.29,14.47c.84,0,1.56-.15,2.14-.46.6-.32,1.06-.77,1.38-1.33.32-.58.48-1.26.48-2.02,0-.58-.09-1.1-.28-1.56-.18-.48-.44-.87-.78-1.2-.34-.34-.76-.6-1.27-.78-.49-.18-1.05-.28-1.68-.28-.81,0-1.52.16-2.12.48-.6.31-1.06.74-1.38,1.31-.31.57-.46,1.24-.46,2.02,0,.58.08,1.11.25,1.59.18.46.44.86.78,1.2.35.32.77.58,1.26.76.49.18,1.04.28,1.66.28ZM62.27,13.86h2.98v2.98h-2.98v-2.98Z"/>
  </g>
</svg>